<svg xmlns="http://www.w3.org/2000/svg" xmlns:xlink="http://www.w3.org/1999/xlink" viewBox="0 0 169.79 112.5"><defs><style>.cls-1{fill:#656565;}.cls-2{fill:#d6d6d6;}.cls-3{fill:url(#Dégradé_sans_nom_5);}.cls-4{fill:#929292;}.cls-5{fill:url(#Dégradé_sans_nom_2);}.cls-6{fill:url(#Dégradé_sans_nom_3);}.cls-7{fill:#f1f1f1;}.cls-8{fill:url(#Dégradé_sans_nom_4);}.cls-10,.cls-9{fill:none;stroke:#000;}.cls-9{stroke-width:1.5px;}.cls-11{fill:url(#Dégradé_sans_nom_5-2);}.cls-12{fill:url(#Dégradé_sans_nom_2-2);}.cls-13{fill:url(#Dégradé_sans_nom_3-2);}.cls-14{fill:url(#Dégradé_sans_nom_4-2);}.cls-15{fill:url(#Dégradé_sans_nom_5-3);}.cls-16{fill:url(#Dégradé_sans_nom_2-3);}.cls-17{fill:url(#Dégradé_sans_nom_3-3);}.cls-18{fill:url(#Dégradé_sans_nom_4-3);}.cls-19{fill:url(#Dégradé_sans_nom_5-4);}.cls-20{fill:url(#Dégradé_sans_nom_2-4);}.cls-21{fill:url(#Dégradé_sans_nom_3-4);}.cls-22{fill:url(#Dégradé_sans_nom_4-4);}</style><linearGradient id="Dégradé_sans_nom_5" x1="-3309.64" y1="27611.1" x2="-3312.67" y2="27623.72" gradientTransform="matrix(0.21, 0, 0, -0.21, 795.73, 5806.88)" gradientUnits="userSpaceOnUse"><stop offset="0" stop-color="#d6d6d6"/><stop offset="1" stop-color="#656565"/></linearGradient><linearGradient id="Dégradé_sans_nom_2" x1="42.02" y1="27426.71" x2="62.07" y2="27411.06" gradientTransform="translate(116.14 5806.88) rotate(180) scale(0.21 0.21)" gradientUnits="userSpaceOnUse"><stop offset="0" stop-color="#d6d6d6"/><stop offset="1" stop-color="#939393"/></linearGradient><linearGradient id="Dégradé_sans_nom_3" x1="-3510.46" y1="27426.21" x2="-3487.56" y2="27410.55" gradientTransform="matrix(0.21, 0, 0, -0.21, 795.73, 5806.88)" gradientUnits="userSpaceOnUse"><stop offset="0" stop-color="#656565"/><stop offset="1" stop-color="#939393"/></linearGradient><linearGradient id="Dégradé_sans_nom_4" x1="-3568.33" y1="27371.65" x2="-3492.83" y2="27371.65" gradientTransform="matrix(0.21, 0, 0, -0.21, 822.46, 5774.12)" gradientUnits="userSpaceOnUse"><stop offset="0" stop-color="#d8d8d8"/><stop offset="1" stop-color="#b1b1b1"/></linearGradient><linearGradient id="Dégradé_sans_nom_5-2" x1="-3596.21" y1="27610.69" x2="-3599.24" y2="27623.31" xlink:href="#Dégradé_sans_nom_5"/><linearGradient id="Dégradé_sans_nom_2-2" x1="329.5" y1="27426.71" x2="349.55" y2="27411.06" xlink:href="#Dégradé_sans_nom_2"/><linearGradient id="Dégradé_sans_nom_3-2" x1="-3797.94" y1="27426.21" x2="-3775.04" y2="27410.55" xlink:href="#Dégradé_sans_nom_3"/><linearGradient id="Dégradé_sans_nom_4-2" x1="-3855.81" y1="27371.64" x2="-3780.31" y2="27371.64" xlink:href="#Dégradé_sans_nom_4"/><linearGradient id="Dégradé_sans_nom_5-3" x1="-3032.76" y1="27610.49" x2="-3035.79" y2="27623.11" gradientTransform="matrix(0.21, 0, 0, -0.21, 795.72, 5806.88)" xlink:href="#Dégradé_sans_nom_5"/><linearGradient id="Dégradé_sans_nom_2-3" x1="-231.15" y1="27426.75" x2="-211.1" y2="27411.1" xlink:href="#Dégradé_sans_nom_2"/><linearGradient id="Dégradé_sans_nom_3-3" x1="-3232.62" y1="27426.27" x2="-3209.72" y2="27410.61" gradientTransform="matrix(0.21, 0, 0, -0.21, 795.72, 5806.88)" xlink:href="#Dégradé_sans_nom_3"/><linearGradient id="Dégradé_sans_nom_4-3" x1="-3290.25" y1="27371.65" x2="-3214.74" y2="27371.65" gradientTransform="matrix(0.21, 0, 0, -0.21, 822.45, 5774.12)" xlink:href="#Dégradé_sans_nom_4"/><linearGradient id="Dégradé_sans_nom_5-4" x1="-3314.13" y1="27894.03" x2="-3317.16" y2="27906.65" xlink:href="#Dégradé_sans_nom_5"/><linearGradient id="Dégradé_sans_nom_2-4" x1="46.81" y1="27710.36" x2="66.86" y2="27694.71" xlink:href="#Dégradé_sans_nom_2"/><linearGradient id="Dégradé_sans_nom_3-4" x1="-3515.26" y1="27709.85" x2="-3492.36" y2="27694.19" xlink:href="#Dégradé_sans_nom_3"/><linearGradient id="Dégradé_sans_nom_4-4" x1="-3573.12" y1="27655.29" x2="-3497.62" y2="27655.29" xlink:href="#Dégradé_sans_nom_4"/></defs><title>Fichier 1</title><g id="Calque_2" data-name="Calque 2"><g id="Calque_1-2" data-name="Calque 1"><g id="layer1"><path id="rect5396" class="cls-1" d="M64.76,59.75h41.55c2.61,0,4.72,1.79,4.72,4v44c0,2.21-2.12,4-4.72,4H64.76c-2.61,0-4.72-1.79-4.72-4v-44C60,61.54,62.15,59.75,64.76,59.75Z"/><rect id="rect5398" class="cls-2" x="101.04" y="63.75" width="11" height="35"/><path id="path5400" class="cls-3" d="M102.64,66.75l9.09-3c-.36-2.86-2.33-3.85-5.07-3.94-3.65.11-7.2.26-9.09,1.34l5.07,5.57Z"/><rect id="rect5402" class="cls-4" x="70.04" y="98.75" width="33" height="13"/><path id="path5404" class="cls-5" d="M101.23,95.73,112,96.88l0,10.51a4.37,4.37,0,0,1-4.4,4.36l-4.81-.05L97.54,99.35l3.69-3.62Z"/><path id="path5406" class="cls-6" d="M67.52,95.62,60,96.88l0,10.51a4.37,4.37,0,0,0,4.4,4.36l4.81-.05L70.9,99.41l-3.37-3.78Z"/><path id="rect5408" class="cls-7" d="M71.79,60.75H99.27A4.77,4.77,0,0,1,104,65.52V96a4.75,4.75,0,0,1-4.75,4.75H71.81A4.77,4.77,0,0,1,67,96V65.5A4.75,4.75,0,0,1,71.79,60.75Z"/><path id="rect5410" class="cls-8" d="M71.79,60.75H97.27A4.77,4.77,0,0,1,102,65.52V96a4.75,4.75,0,0,1-4.75,4.75H71.81A4.77,4.77,0,0,1,67,96V65.5A4.75,4.75,0,0,1,71.79,60.75Z"/><path id="rect5416" class="cls-9" d="M64.76,59.75h41.55c2.61,0,4.72,1.79,4.72,4v44c0,2.21-2.12,4-4.72,4H64.76c-2.61,0-4.72-1.79-4.72-4v-44C60,61.54,62.15,59.75,64.76,59.75Z"/><g id="g6461"><path id="path6457" class="cls-10" d="M84.54,77.75v9"/><path id="path6459" d="M84.57,88.6l2.8-4.85h-5.6Z"/></g></g><g id="layer1-2" data-name="layer1"><path id="rect5374" class="cls-1" d="M5.76,59.75H47.31c2.61,0,4.72,1.79,4.72,4v44c0,2.21-2.12,4-4.72,4H5.76c-2.61,0-4.72-1.79-4.72-4v-44C1,61.54,3.15,59.75,5.76,59.75Z"/><rect id="rect5376" class="cls-2" x="41.04" y="63.75" width="11" height="35"/><path id="path5378" class="cls-11" d="M42.83,66.84l9.09-3C51.56,61,49.59,60,46.85,59.93c-3.65.11-7.2.26-9.09,1.34Z"/><rect id="rect5380" class="cls-4" x="10.04" y="98.75" width="33" height="13"/><path id="path5382" class="cls-12" d="M41.23,95.73,52,96.88l0,10.51a4.37,4.37,0,0,1-4.4,4.36l-4.81-.05L37.54,99.35l3.69-3.62Z"/><path id="path5384" class="cls-13" d="M7.52,95.62,0,96.88l0,10.51a4.37,4.37,0,0,0,4.4,4.36l4.81-.05L10.9,99.41,7.52,95.62Z"/><path id="rect5386" class="cls-7" d="M11.79,60.75H39.27A4.77,4.77,0,0,1,44,65.52V96a4.75,4.75,0,0,1-4.75,4.75H11.81A4.77,4.77,0,0,1,7,96V65.5A4.75,4.75,0,0,1,11.79,60.75Z"/><path id="rect5388" class="cls-14" d="M11.79,60.75H37.27A4.77,4.77,0,0,1,42,65.52V96a4.75,4.75,0,0,1-4.75,4.75H11.81A4.77,4.77,0,0,1,7,96V65.5A4.75,4.75,0,0,1,11.79,60.75Z"/><path id="rect5394" class="cls-9" d="M5.76,59.75H47.31c2.61,0,4.72,1.79,4.72,4v44c0,2.21-2.12,4-4.72,4H5.76c-2.61,0-4.72-1.79-4.72-4v-44C1,61.54,3.15,59.75,5.76,59.75Z"/><g id="g6475"><path id="path6449" class="cls-10" d="M31,81.25H22"/><path id="path6451" d="M20.19,81.51,25,78.71v5.6Z"/></g></g><g id="layer1-3" data-name="layer1"><path id="rect5418" class="cls-1" d="M122.76,59.75h41.55c2.61,0,4.72,1.79,4.72,4v44c0,2.21-2.12,4-4.72,4H122.76c-2.61,0-4.72-1.79-4.72-4v-44C118,61.54,120.15,59.75,122.76,59.75Z"/><rect id="rect5420" class="cls-2" x="158.04" y="63.75" width="11" height="35"/><path id="path5422" class="cls-15" d="M160.42,66.88l9.09-3c-.36-2.86-2.33-3.85-5.07-3.94-3.65.11-7.2.26-9.09,1.34Z"/><rect id="rect5424" class="cls-4" x="127.04" y="98.75" width="33" height="13"/><path id="path5426" class="cls-16" d="M158.23,95.73,169,96.88l0,10.51a4.38,4.38,0,0,1-4.4,4.36l-4.81-.05-5.32-12.34,3.69-3.62Z"/><path id="path5428" class="cls-17" d="M125.52,95.62,118,96.88l0,10.51a4.38,4.38,0,0,0,4.4,4.36l4.81-.05,1.69-12.29-3.37-3.78Z"/><path id="rect5430" class="cls-7" d="M129.79,60.75h27.48A4.77,4.77,0,0,1,162,65.52V96a4.75,4.75,0,0,1-4.75,4.75H129.81A4.77,4.77,0,0,1,125,96V65.5A4.75,4.75,0,0,1,129.79,60.75Z"/><path id="rect5432" class="cls-18" d="M129.79,60.75h25.48A4.77,4.77,0,0,1,160,65.52V96a4.75,4.75,0,0,1-4.75,4.75H129.81A4.77,4.77,0,0,1,125,96V65.5A4.75,4.75,0,0,1,129.79,60.75Z"/><path id="rect5440" class="cls-9" d="M122.76,59.75h41.55c2.61,0,4.72,1.79,4.72,4v44c0,2.21-2.12,4-4.72,4H122.76c-2.61,0-4.72-1.79-4.72-4v-44C118,61.54,120.15,59.75,122.76,59.75Z"/><g id="g6471"><path id="path6453" class="cls-10" d="M140,81.25h9"/><path id="path6455" d="M150.89,81.55,146,78.75v5.6Z"/></g></g><g id="layer1-4" data-name="layer1"><path id="rect5488" class="cls-1" d="M64.76.75h41.55c2.61,0,4.72,1.79,4.72,4v44c0,2.21-2.12,4-4.72,4H64.76c-2.61,0-4.72-1.79-4.72-4v-44C60,2.54,62.15.75,64.76.75Z"/><rect id="rect5490" class="cls-2" x="100.04" y="4.75" width="11" height="35"/><path id="path5492" class="cls-19" d="M101.7,7.91l9.09-3c-.36-2.86-2.33-3.85-5.07-3.94-3.65.11-7.2.26-9.09,1.34L101.7,7.9Z"/><rect id="rect5494" class="cls-4" x="69.04" y="39.75" width="33" height="13"/><path id="path5496" class="cls-20" d="M100.23,36.73,111,37.88l0,10.51a4.37,4.37,0,0,1-4.4,4.36l-4.81-.05L96.54,40.35l3.69-3.62Z"/><path id="path5498" class="cls-21" d="M66.52,36.62,59,37.88l0,10.51a4.37,4.37,0,0,0,4.4,4.36l4.81-.05L69.9,40.41l-3.37-3.78Z"/><path id="rect5500" class="cls-7" d="M70.79,1.75H98.27A4.77,4.77,0,0,1,103,6.52V37a4.75,4.75,0,0,1-4.75,4.75H70.81A4.77,4.77,0,0,1,66,37V6.5A4.75,4.75,0,0,1,70.79,1.75Z"/><path id="rect5502" class="cls-22" d="M70.79,1.75H96.27A4.77,4.77,0,0,1,101,6.52V37a4.75,4.75,0,0,1-4.75,4.75H70.81A4.77,4.77,0,0,1,66,37V6.5A4.75,4.75,0,0,1,70.79,1.75Z"/><path id="rect5508" class="cls-9" d="M64.76.75h41.55c2.61,0,4.72,1.79,4.72,4v44c0,2.21-2.12,4-4.72,4H64.76c-2.61,0-4.72-1.79-4.72-4v-44C60,2.54,62.15.75,64.76.75Z"/><g id="g6465"><path id="path6467" class="cls-10" d="M83.54,23.75v-9"/><path id="path6469" d="M83.63,11.9l2.8,4.85h-5.6Z"/></g></g></g></g></svg>
